<?xml version="1.0" encoding="UTF-8"?>
<svg width="18px" height="18px" viewBox="0 0 18 18" version="1.1" xmlns="http://www.w3.org/2000/svg" xmlns:xlink="http://www.w3.org/1999/xlink">
    <!-- Generator: Sketch 53 (72520) - https://sketchapp.com -->
    <title>f-habits</title>
    <desc>Created with Sketch.</desc>
    <g id="Process" stroke="none" stroke-width="1" fill="none" fill-rule="evenodd">
        <g id="Artboard" transform="translate(-207.000000, -420.000000)" fill="#8C60E5" fill-rule="nonzero">
            <path d="M216,438 C211.029437,438 207,433.970563 207,429 C207,424.029437 211.029437,420 216,420 C220.970563,420 225,424.029437 225,429 C225,433.970563 220.970563,438 216,438 Z M216,435.6 C219.645079,435.6 222.6,432.645079 222.6,429 C222.6,425.354921 219.645079,422.4 216,422.4 C212.354921,422.4 209.4,425.354921 209.4,429 C209.4,432.645079 212.354921,435.6 216,435.6 Z M216,433.2 C213.680404,433.2 211.8,431.319596 211.8,429 C211.8,426.680404 213.680404,424.8 216,424.8 C218.319596,424.8 220.2,426.680404 220.2,429 C220.2,431.319596 218.319596,433.2 216,433.2 Z M216,430.8 C216.994113,430.8 217.8,429.994113 217.8,429 C217.8,428.005887 216.994113,427.2 216,427.2 C215.005887,427.2 214.2,428.005887 214.2,429 C214.2,429.994113 215.005887,430.8 216,430.8 Z" id="f-habits"></path>
        </g>
    </g>
</svg>