<?xml version="1.0" encoding="UTF-8"?>
<svg width="18px" height="13px" viewBox="0 0 18 13" version="1.1" xmlns="http://www.w3.org/2000/svg" xmlns:xlink="http://www.w3.org/1999/xlink">
    <!-- Generator: Sketch 53 (72520) - https://sketchapp.com -->
    <title>f-multiply</title>
    <desc>Created with Sketch.</desc>
    <g id="Process" stroke="none" stroke-width="1" fill="none" fill-rule="evenodd">
        <g id="Artboard" transform="translate(-241.000000, -438.000000)" fill="#FFA325">
            <path d="M250,440 L258,440 C258.552285,440 259,440.447715 259,441 C259,441.552285 258.552285,442 258,442 L250,442 C249.447715,442 249,441.552285 249,441 C249,440.447715 249.447715,440 250,440 Z M250,447 L258,447 C258.552285,447 259,447.447715 259,448 C259,448.552285 258.552285,449 258,449 L250,449 C249.447715,449 249,448.552285 249,448 C249,447.447715 249.447715,447 250,447 Z M244,444 C242.343146,444 241,442.656854 241,441 C241,439.343146 242.343146,438 244,438 C245.656854,438 247,439.343146 247,441 C247,442.656854 245.656854,444 244,444 Z M244,442 C244.552285,442 245,441.552285 245,441 C245,440.447715 244.552285,440 244,440 C243.447715,440 243,440.447715 243,441 C243,441.552285 243.447715,442 244,442 Z M244,451 C242.343146,451 241,449.656854 241,448 C241,446.343146 242.343146,445 244,445 C245.656854,445 247,446.343146 247,448 C247,449.656854 245.656854,451 244,451 Z M244,449 C244.552285,449 245,448.552285 245,448 C245,447.447715 244.552285,447 244,447 C243.447715,447 243,447.447715 243,448 C243,448.552285 243.447715,449 244,449 Z" id="f-multiply"></path>
        </g>
    </g>
</svg>