<?xml version="1.0" encoding="UTF-8"?>
<svg width="19px" height="17px" viewBox="0 0 19 17" version="1.1" xmlns="http://www.w3.org/2000/svg" xmlns:xlink="http://www.w3.org/1999/xlink">
    <!-- Generator: Sketch 53 (72520) - https://sketchapp.com -->
    <title>f-repeat</title>
    <desc>Created with Sketch.</desc>
    <g id="Process" stroke="none" stroke-width="1" fill="none" fill-rule="evenodd">
        <g id="Artboard" transform="translate(-350.000000, -451.000000)" fill="#75D449" fill-rule="nonzero">
            <path d="M354.412955,458.889619 C354.714837,455.655138 357.391279,453.125 360.648352,453.125 C364.107718,453.125 366.912088,455.979185 366.912088,459.5 C366.912088,463.020815 364.107718,465.875 360.648352,465.875 C359.532411,465.875 358.461427,465.578534 357.517825,465.023132 C357.01872,464.72936 356.380121,464.903002 356.091476,465.410973 C355.802831,465.918945 355.973443,466.568887 356.472548,466.862659 C357.731776,467.603838 359.162912,468 360.648352,468 C365.26084,468 369,464.19442 369,459.5 C369,454.80558 365.26084,451 360.648352,451 C356.310706,451 352.745411,454.36557 352.335926,458.670913 L351.782144,458.107295 C351.374454,457.692363 350.713458,457.692363 350.305768,458.107295 C349.898077,458.522227 349.898077,459.194965 350.305768,459.609897 L352.743696,462.091131 C353.151386,462.506063 353.812383,462.506063 354.220073,462.091131 L356.721731,459.545035 C357.129422,459.130103 357.129422,458.457365 356.721731,458.042433 C356.314041,457.627501 355.653045,457.627501 355.245355,458.042433 L354.412955,458.889619 L354.412955,458.889619 Z" id="f-repeat"></path>
        </g>
    </g>
</svg>