<?xml version="1.0" encoding="UTF-8"?>
<svg width="20px" height="14px" viewBox="0 0 20 14" version="1.1" xmlns="http://www.w3.org/2000/svg" xmlns:xlink="http://www.w3.org/1999/xlink">
    <!-- Generator: Sketch 53 (72520) - https://sketchapp.com -->
    <title>f-shopping</title>
    <desc>Created with Sketch.</desc>
    <g id="Process" stroke="none" stroke-width="1" fill="none" fill-rule="evenodd">
        <g id="Artboard" transform="translate(-318.000000, -446.000000)" fill="#496DD4">
            <path d="M327.193712,449.671313 L328.636324,446.57762 C328.86973,446.07708 329.46471,445.860525 329.96525,446.093931 C330.46579,446.327336 330.682346,446.922317 330.44894,447.422857 L329.400468,449.671313 L336.522967,449.671313 C337.075252,449.671313 337.522967,450.119028 337.522967,450.671313 C337.522967,450.798532 337.498692,450.924583 337.451444,451.042703 L334.251444,459.042703 C334.09958,459.422362 333.731872,459.671313 333.322967,459.671313 L322.200266,459.671313 C321.791361,459.671313 321.423653,459.422362 321.271789,459.042703 L318.071789,451.042703 C317.866676,450.52992 318.116092,449.947949 318.628875,449.742836 C318.746996,449.695588 318.873047,449.671313 319.000266,449.671313 L327.193712,449.671313 Z M327.523233,452.671313 C326.970948,452.671313 326.523233,453.119028 326.523233,453.671313 L326.523233,455.671313 C326.523233,456.223597 326.970948,456.671313 327.523233,456.671313 C328.075518,456.671313 328.523233,456.223597 328.523233,455.671313 L328.523233,453.671313 C328.523233,453.119028 328.075518,452.671313 327.523233,452.671313 Z M323.523233,452.671313 C322.970948,452.671313 322.523233,453.119028 322.523233,453.671313 L322.523233,455.671313 C322.523233,456.223597 322.970948,456.671313 323.523233,456.671313 C324.075518,456.671313 324.523233,456.223597 324.523233,455.671313 L324.523233,453.671313 C324.523233,453.119028 324.075518,452.671313 323.523233,452.671313 Z M331.523233,452.671313 C330.970948,452.671313 330.523233,453.119028 330.523233,453.671313 L330.523233,455.671313 C330.523233,456.223597 330.970948,456.671313 331.523233,456.671313 C332.075518,456.671313 332.523233,456.223597 332.523233,455.671313 L332.523233,453.671313 C332.523233,453.119028 332.075518,452.671313 331.523233,452.671313 Z" id="f-shopping"></path>
        </g>
    </g>
</svg>