<?xml version="1.0" encoding="UTF-8"?>
<svg width="18px" height="18px" viewBox="0 0 18 18" version="1.1" xmlns="http://www.w3.org/2000/svg" xmlns:xlink="http://www.w3.org/1999/xlink">
    <!-- Generator: Sketch 53 (72520) - https://sketchapp.com -->
    <title>f-tasks</title>
    <desc>Created with Sketch.</desc>
    <g id="Process" stroke="none" stroke-width="1" fill="none" fill-rule="evenodd">
        <g id="Artboard" transform="translate(-161.000000, -378.000000)" fill="#44C0FF">
            <path d="M165,378 L175,378 C177.209139,378 179,379.790861 179,382 L179,392 C179,394.209139 177.209139,396 175,396 L165,396 C162.790861,396 161,394.209139 161,392 L161,382 C161,379.790861 162.790861,378 165,378 Z M166.839939,387.133817 C166.419027,386.712905 165.736595,386.712905 165.315684,387.133817 C164.894772,387.554728 164.894772,388.237161 165.315684,388.658072 L168.385027,391.727416 L175.272504,384.839939 C175.693415,384.419027 175.693415,383.736595 175.272504,383.315684 C174.851592,382.894772 174.16916,382.894772 173.748249,383.315684 L168.385027,388.678905 L166.839939,387.133817 Z" id="f-tasks"></path>
        </g>
    </g>
</svg>