<?xml version="1.0" encoding="UTF-8"?>
<svg width="16px" height="20px" viewBox="0 0 16 20" version="1.1" xmlns="http://www.w3.org/2000/svg" xmlns:xlink="http://www.w3.org/1999/xlink">
    <!-- Generator: Sketch 53 (72520) - https://sketchapp.com -->
    <title>f-voice</title>
    <desc>Created with Sketch.</desc>
    <g id="Process" stroke="none" stroke-width="1" fill="none" fill-rule="evenodd">
        <g id="Artboard" transform="translate(-276.000000, -431.000000)" fill="#FF5342">
            <path d="M285,447.438106 L285,450 C285,450.552285 284.552285,451 284,451 C283.447715,451 283,450.552285 283,450 L283,447.438106 C279.053688,446.946008 276,443.579618 276,439.5 C276,438.947715 276.447715,438.5 277,438.5 C277.552285,438.5 278,438.947715 278,439.5 C278,442.813708 280.686292,445.5 284,445.5 C287.313708,445.5 290,442.813708 290,439.5 C290,438.947715 290.447715,438.5 291,438.5 C291.552285,438.5 292,438.947715 292,439.5 C292,443.579618 288.946312,446.946008 285,447.438106 L285,447.438106 Z M284,431 C285.656854,431 287,432.343146 287,434 L287,440 C287,441.656854 285.656854,443 284,443 C282.343146,443 281,441.656854 281,440 L281,434 C281,432.343146 282.343146,431 284,431 Z" id="f-voice"></path>
        </g>
    </g>
</svg>